<svg xmlns="http://www.w3.org/2000/svg" viewBox="0 0 1200 580" width="1200" height="580">
  <!-- Page background -->
  <rect width="1200" height="580" fill="#09090b"/>

  <!-- Sidebar -->
  <rect x="0" y="0" width="224" height="580" fill="#18181b"/>
  <line x1="224" y1="0" x2="224" y2="580" stroke="#27272a" stroke-width="1"/>

  <!-- Brand -->
  <rect x="16" y="18" width="32" height="32" rx="8" fill="#818cf8"/>
  <text x="20" y="39" font-family="system-ui,-apple-system,sans-serif" font-size="18" font-weight="700" fill="#fff">H</text>
  <text x="56" y="38" font-family="system-ui,-apple-system,sans-serif" font-size="13" font-weight="600" fill="#fafafa">HeatWare</text>
  <text x="56" y="52" font-family="system-ui,-apple-system,sans-serif" font-size="10" fill="#71717a">Admin Panel</text>

  <line x1="12" y1="66" x2="212" y2="66" stroke="#27272a" stroke-width="1"/>

  <!-- Nav -->
  <text x="32" y="96" font-family="system-ui,-apple-system,sans-serif" font-size="13" fill="#71717a">Dashboard</text>
  <!-- Users (active) -->
  <rect x="8" y="106" width="208" height="34" rx="8" fill="#27272a"/>
  <rect x="22" y="117" width="3" height="12" rx="1.5" fill="#818cf8"/>
  <text x="32" y="128" font-family="system-ui,-apple-system,sans-serif" font-size="13" font-weight="500" fill="#fafafa">Users</text>

  <text x="32" y="162" font-family="system-ui,-apple-system,sans-serif" font-size="13" fill="#71717a">Billing</text>
  <text x="32" y="194" font-family="system-ui,-apple-system,sans-serif" font-size="13" fill="#71717a">Audit Logs</text>
  <text x="32" y="226" font-family="system-ui,-apple-system,sans-serif" font-size="13" fill="#71717a">Feature Flags</text>
  <text x="32" y="258" font-family="system-ui,-apple-system,sans-serif" font-size="13" fill="#71717a">Health</text>

  <!-- Main content -->
  <text x="248" y="42" font-family="system-ui,-apple-system,sans-serif" font-size="20" font-weight="700" fill="#fafafa">Users</text>
  <text x="248" y="60" font-family="system-ui,-apple-system,sans-serif" font-size="12" fill="#71717a">Manage user accounts, roles, and permissions</text>

  <!-- Export CSV button -->
  <rect x="1094" y="28" width="82" height="30" rx="8" fill="#27272a" stroke="#3f3f46" stroke-width="1"/>
  <text x="1108" y="47" font-family="system-ui,-apple-system,sans-serif" font-size="12" fill="#a1a1aa">Export CSV</text>

  <line x1="236" y1="76" x2="1188" y2="76" stroke="#27272a" stroke-width="1"/>

  <!-- Search + filters -->
  <rect x="248" y="92" width="320" height="34" rx="8" fill="#18181b" stroke="#27272a" stroke-width="1"/>
  <text x="268" y="113" font-family="system-ui,-apple-system,sans-serif" font-size="12" fill="#3f3f46">Search users…</text>

  <rect x="580" y="92" width="90" height="34" rx="8" fill="#18181b" stroke="#27272a" stroke-width="1"/>
  <text x="600" y="113" font-family="system-ui,-apple-system,sans-serif" font-size="12" fill="#a1a1aa">All plans</text>

  <rect x="682" y="92" width="90" height="34" rx="8" fill="#18181b" stroke="#27272a" stroke-width="1"/>
  <text x="696" y="113" font-family="system-ui,-apple-system,sans-serif" font-size="12" fill="#a1a1aa">All roles</text>

  <!-- Table -->
  <rect x="248" y="142" width="928" height="390" rx="10" fill="#18181b" stroke="#27272a" stroke-width="1"/>

  <!-- Table header -->
  <rect x="248" y="142" width="928" height="38" rx="10" fill="#1c1c1e"/>
  <rect x="248" y="162" width="928" height="18" fill="#1c1c1e"/>
  <line x1="248" y1="180" x2="1176" y2="180" stroke="#27272a" stroke-width="1"/>

  <text x="272" y="165" font-family="system-ui,-apple-system,sans-serif" font-size="11" font-weight="600" fill="#71717a">NAME</text>
  <text x="530" y="165" font-family="system-ui,-apple-system,sans-serif" font-size="11" font-weight="600" fill="#71717a">EMAIL</text>
  <text x="750" y="165" font-family="system-ui,-apple-system,sans-serif" font-size="11" font-weight="600" fill="#71717a">PLAN</text>
  <text x="860" y="165" font-family="system-ui,-apple-system,sans-serif" font-size="11" font-weight="600" fill="#71717a">ROLE</text>
  <text x="960" y="165" font-family="system-ui,-apple-system,sans-serif" font-size="11" font-weight="600" fill="#71717a">JOINED</text>
  <text x="1110" y="165" font-family="system-ui,-apple-system,sans-serif" font-size="11" font-weight="600" fill="#71717a">ACTIONS</text>

  <!-- Row 1 -->
  <circle cx="290" cy="207" r="14" fill="#818cf8" fill-opacity="0.2"/>
  <text x="284" y="211" font-family="system-ui,-apple-system,sans-serif" font-size="11" font-weight="600" fill="#818cf8">SC</text>
  <text x="312" y="204" font-family="system-ui,-apple-system,sans-serif" font-size="12" font-weight="500" fill="#fafafa">Sarah Chen</text>
  <text x="312" y="218" font-family="system-ui,-apple-system,sans-serif" font-size="10" fill="#71717a">sarah@example.com</text>
  <text x="530" y="208" font-family="system-ui,-apple-system,sans-serif" font-size="12" fill="#a1a1aa">sarah@example.com</text>
  <rect x="750" y="198" width="42" height="18" rx="9" fill="#818cf8" fill-opacity="0.2"/>
  <text x="759" y="211" font-family="system-ui,-apple-system,sans-serif" font-size="10" fill="#818cf8">Pro</text>
  <rect x="860" y="198" width="48" height="18" rx="9" fill="#f87171" fill-opacity="0.15"/>
  <text x="868" y="211" font-family="system-ui,-apple-system,sans-serif" font-size="10" fill="#f87171">Admin</text>
  <text x="960" y="208" font-family="system-ui,-apple-system,sans-serif" font-size="11" fill="#71717a">Jan 5, 2026</text>
  <rect x="1110" y="198" width="50" height="18" rx="6" fill="#27272a"/>
  <text x="1121" y="211" font-family="system-ui,-apple-system,sans-serif" font-size="10" fill="#a1a1aa">View</text>
  <line x1="260" y1="228" x2="1164" y2="228" stroke="#27272a" stroke-width="1"/>

  <!-- Row 2 -->
  <circle cx="290" cy="255" r="14" fill="#4ade80" fill-opacity="0.15"/>
  <text x="284" y="259" font-family="system-ui,-apple-system,sans-serif" font-size="11" font-weight="600" fill="#4ade80">JA</text>
  <text x="312" y="252" font-family="system-ui,-apple-system,sans-serif" font-size="12" font-weight="500" fill="#fafafa">John Acme</text>
  <text x="312" y="266" font-family="system-ui,-apple-system,sans-serif" font-size="10" fill="#71717a">john@acme.com</text>
  <text x="530" y="256" font-family="system-ui,-apple-system,sans-serif" font-size="12" fill="#a1a1aa">john@acme.com</text>
  <rect x="750" y="246" width="48" height="18" rx="9" fill="#4ade80" fill-opacity="0.15"/>
  <text x="755" y="259" font-family="system-ui,-apple-system,sans-serif" font-size="10" fill="#4ade80">Team</text>
  <rect x="860" y="246" width="42" height="18" rx="9" fill="#71717a" fill-opacity="0.15"/>
  <text x="869" y="259" font-family="system-ui,-apple-system,sans-serif" font-size="10" fill="#a1a1aa">User</text>
  <text x="960" y="256" font-family="system-ui,-apple-system,sans-serif" font-size="11" fill="#71717a">Feb 2, 2026</text>
  <rect x="1110" y="246" width="50" height="18" rx="6" fill="#27272a"/>
  <text x="1121" y="259" font-family="system-ui,-apple-system,sans-serif" font-size="10" fill="#a1a1aa">View</text>
  <line x1="260" y1="276" x2="1164" y2="276" stroke="#27272a" stroke-width="1"/>

  <!-- Row 3 -->
  <circle cx="290" cy="303" r="14" fill="#facc15" fill-opacity="0.15"/>
  <text x="284" y="307" font-family="system-ui,-apple-system,sans-serif" font-size="11" font-weight="600" fill="#facc15">ME</text>
  <text x="312" y="300" font-family="system-ui,-apple-system,sans-serif" font-size="12" font-weight="500" fill="#fafafa">Mike Emerson</text>
  <text x="312" y="314" font-family="system-ui,-apple-system,sans-serif" font-size="10" fill="#71717a">mike@example.com</text>
  <text x="530" y="304" font-family="system-ui,-apple-system,sans-serif" font-size="12" fill="#a1a1aa">mike@example.com</text>
  <rect x="750" y="294" width="38" height="18" rx="9" fill="#71717a" fill-opacity="0.15"/>
  <text x="756" y="307" font-family="system-ui,-apple-system,sans-serif" font-size="10" fill="#a1a1aa">Free</text>
  <rect x="860" y="294" width="42" height="18" rx="9" fill="#71717a" fill-opacity="0.15"/>
  <text x="869" y="307" font-family="system-ui,-apple-system,sans-serif" font-size="10" fill="#a1a1aa">User</text>
  <text x="960" y="304" font-family="system-ui,-apple-system,sans-serif" font-size="11" fill="#71717a">Feb 14, 2026</text>
  <rect x="1110" y="294" width="50" height="18" rx="6" fill="#27272a"/>
  <text x="1121" y="307" font-family="system-ui,-apple-system,sans-serif" font-size="10" fill="#a1a1aa">View</text>
  <line x1="260" y1="324" x2="1164" y2="324" stroke="#27272a" stroke-width="1"/>

  <!-- Row 4 -->
  <circle cx="290" cy="351" r="14" fill="#818cf8" fill-opacity="0.15"/>
  <text x="284" y="355" font-family="system-ui,-apple-system,sans-serif" font-size="11" font-weight="600" fill="#818cf8">ES</text>
  <text x="312" y="348" font-family="system-ui,-apple-system,sans-serif" font-size="12" font-weight="500" fill="#fafafa">Emma Startup</text>
  <text x="312" y="362" font-family="system-ui,-apple-system,sans-serif" font-size="10" fill="#71717a">emma@startup.io</text>
  <text x="530" y="352" font-family="system-ui,-apple-system,sans-serif" font-size="12" fill="#a1a1aa">emma@startup.io</text>
  <rect x="750" y="342" width="42" height="18" rx="9" fill="#818cf8" fill-opacity="0.2"/>
  <text x="759" y="355" font-family="system-ui,-apple-system,sans-serif" font-size="10" fill="#818cf8">Pro</text>
  <rect x="860" y="342" width="42" height="18" rx="9" fill="#71717a" fill-opacity="0.15"/>
  <text x="869" y="355" font-family="system-ui,-apple-system,sans-serif" font-size="10" fill="#a1a1aa">User</text>
  <text x="960" y="352" font-family="system-ui,-apple-system,sans-serif" font-size="11" fill="#71717a">Mar 3, 2026</text>
  <rect x="1110" y="342" width="50" height="18" rx="6" fill="#27272a"/>
  <text x="1121" y="355" font-family="system-ui,-apple-system,sans-serif" font-size="10" fill="#a1a1aa">View</text>
  <line x1="260" y1="372" x2="1164" y2="372" stroke="#27272a" stroke-width="1"/>

  <!-- Row 5 -->
  <circle cx="290" cy="399" r="14" fill="#4ade80" fill-opacity="0.15"/>
  <text x="284" y="403" font-family="system-ui,-apple-system,sans-serif" font-size="11" font-weight="600" fill="#4ade80">CB</text>
  <text x="312" y="396" font-family="system-ui,-apple-system,sans-serif" font-size="12" font-weight="500" fill="#fafafa">Corp Bigco</text>
  <text x="312" y="410" font-family="system-ui,-apple-system,sans-serif" font-size="10" fill="#71717a">corp@bigco.com</text>
  <text x="530" y="400" font-family="system-ui,-apple-system,sans-serif" font-size="12" fill="#a1a1aa">corp@bigco.com</text>
  <rect x="750" y="390" width="70" height="18" rx="9" fill="#f87171" fill-opacity="0.12"/>
  <text x="754" y="403" font-family="system-ui,-apple-system,sans-serif" font-size="10" fill="#f87171">Enterprise</text>
  <rect x="860" y="390" width="42" height="18" rx="9" fill="#71717a" fill-opacity="0.15"/>
  <text x="869" y="403" font-family="system-ui,-apple-system,sans-serif" font-size="10" fill="#a1a1aa">User</text>
  <text x="960" y="400" font-family="system-ui,-apple-system,sans-serif" font-size="11" fill="#71717a">Mar 10, 2026</text>
  <rect x="1110" y="390" width="50" height="18" rx="6" fill="#27272a"/>
  <text x="1121" y="403" font-family="system-ui,-apple-system,sans-serif" font-size="10" fill="#a1a1aa">View</text>
  <line x1="260" y1="420" x2="1164" y2="420" stroke="#27272a" stroke-width="1"/>

  <!-- Row 6 -->
  <circle cx="290" cy="447" r="14" fill="#71717a" fill-opacity="0.15"/>
  <text x="284" y="451" font-family="system-ui,-apple-system,sans-serif" font-size="11" font-weight="600" fill="#a1a1aa">DA</text>
  <text x="312" y="444" font-family="system-ui,-apple-system,sans-serif" font-size="12" font-weight="500" fill="#71717a">Dev Agency</text>
  <text x="312" y="458" font-family="system-ui,-apple-system,sans-serif" font-size="10" fill="#52525b">dev@agency.com</text>
  <text x="530" y="448" font-family="system-ui,-apple-system,sans-serif" font-size="12" fill="#52525b">dev@agency.com</text>
  <rect x="750" y="438" width="42" height="18" rx="9" fill="#818cf8" fill-opacity="0.15"/>
  <text x="759" y="451" font-family="system-ui,-apple-system,sans-serif" font-size="10" fill="#818cf8">Pro</text>
  <rect x="860" y="438" width="42" height="18" rx="9" fill="#71717a" fill-opacity="0.15"/>
  <text x="869" y="451" font-family="system-ui,-apple-system,sans-serif" font-size="10" fill="#71717a">User</text>
  <text x="960" y="448" font-family="system-ui,-apple-system,sans-serif" font-size="11" fill="#52525b">Mar 18, 2026</text>
  <rect x="1110" y="438" width="50" height="18" rx="6" fill="#27272a"/>
  <text x="1121" y="451" font-family="system-ui,-apple-system,sans-serif" font-size="10" fill="#a1a1aa">View</text>

  <!-- Table footer: pagination -->
  <line x1="260" y1="500" x2="1164" y2="500" stroke="#27272a" stroke-width="1"/>
  <text x="272" y="522" font-family="system-ui,-apple-system,sans-serif" font-size="11" fill="#71717a">Showing 1–15 of 142 users</text>
  <rect x="1054" y="508" width="28" height="24" rx="6" fill="#27272a"/>
  <text x="1064" y="524" font-family="system-ui,-apple-system,sans-serif" font-size="12" fill="#a1a1aa">←</text>
  <rect x="1090" y="508" width="28" height="24" rx="6" fill="#818cf8"/>
  <text x="1100" y="524" font-family="system-ui,-apple-system,sans-serif" font-size="12" fill="#fff">1</text>
  <rect x="1126" y="508" width="28" height="24" rx="6" fill="#27272a"/>
  <text x="1133" y="524" font-family="system-ui,-apple-system,sans-serif" font-size="12" fill="#a1a1aa">2</text>
  <rect x="1158" y="508" width="18" height="24" rx="6" fill="#27272a"/>
  <text x="1162" y="524" font-family="system-ui,-apple-system,sans-serif" font-size="12" fill="#a1a1aa">→</text>
</svg>
