<svg xmlns="http://www.w3.org/2000/svg" viewBox="0 0 1200 700" width="1200" height="700">
  <!-- Background -->
  <rect width="1200" height="700" fill="#09090b"/>

  <!-- Sidebar -->
  <rect x="0" y="0" width="224" height="700" fill="#18181b"/>
  <line x1="224" y1="0" x2="224" y2="700" stroke="#27272a" stroke-width="1"/>

  <rect x="16" y="18" width="32" height="32" rx="8" fill="#818cf8"/>
  <text x="20" y="39" font-family="system-ui,-apple-system,sans-serif" font-size="18" font-weight="700" fill="#fff">H</text>
  <text x="56" y="38" font-family="system-ui,-apple-system,sans-serif" font-size="13" font-weight="600" fill="#fafafa">HeatWare</text>
  <text x="56" y="52" font-family="system-ui,-apple-system,sans-serif" font-size="10" fill="#71717a">Admin Panel</text>

  <line x1="12" y1="66" x2="212" y2="66" stroke="#27272a" stroke-width="1"/>

  <text x="32" y="96" font-family="system-ui,-apple-system,sans-serif" font-size="13" fill="#71717a">Dashboard</text>
  <text x="32" y="128" font-family="system-ui,-apple-system,sans-serif" font-size="13" fill="#71717a">Users</text>
  <!-- Billing (active) -->
  <rect x="8" y="138" width="208" height="34" rx="8" fill="#27272a"/>
  <rect x="22" y="149" width="3" height="12" rx="1.5" fill="#818cf8"/>
  <text x="32" y="160" font-family="system-ui,-apple-system,sans-serif" font-size="13" font-weight="500" fill="#fafafa">Billing</text>
  <text x="32" y="194" font-family="system-ui,-apple-system,sans-serif" font-size="13" fill="#71717a">Audit Logs</text>
  <text x="32" y="226" font-family="system-ui,-apple-system,sans-serif" font-size="13" fill="#71717a">Feature Flags</text>

  <!-- Main content -->
  <text x="248" y="42" font-family="system-ui,-apple-system,sans-serif" font-size="20" font-weight="700" fill="#fafafa">Billing Overview</text>
  <text x="248" y="60" font-family="system-ui,-apple-system,sans-serif" font-size="12" fill="#71717a">Subscription metrics and revenue</text>
  <line x1="236" y1="76" x2="1188" y2="76" stroke="#27272a" stroke-width="1"/>

  <!-- Stat cards -->
  <!-- MRR -->
  <rect x="248" y="92" width="290" height="100" rx="10" fill="#18181b" stroke="#27272a" stroke-width="1"/>
  <text x="268" y="116" font-family="system-ui,-apple-system,sans-serif" font-size="11" fill="#a1a1aa">Monthly Recurring Revenue</text>
  <text x="268" y="152" font-family="system-ui,-apple-system,sans-serif" font-size="30" font-weight="700" fill="#4ade80">$4,290</text>
  <text x="268" y="174" font-family="system-ui,-apple-system,sans-serif" font-size="10" fill="#4ade80">↑ 12% vs last month</text>

  <!-- Active Subscriptions -->
  <rect x="552" y="92" width="290" height="100" rx="10" fill="#18181b" stroke="#27272a" stroke-width="1"/>
  <text x="572" y="116" font-family="system-ui,-apple-system,sans-serif" font-size="11" fill="#a1a1aa">Active Subscriptions</text>
  <text x="572" y="152" font-family="system-ui,-apple-system,sans-serif" font-size="30" font-weight="700" fill="#fafafa">87</text>
  <text x="572" y="174" font-family="system-ui,-apple-system,sans-serif" font-size="10" fill="#71717a">Paying customers</text>

  <!-- Canceled this month -->
  <rect x="856" y="92" width="320" height="100" rx="10" fill="#18181b" stroke="#27272a" stroke-width="1"/>
  <text x="876" y="116" font-family="system-ui,-apple-system,sans-serif" font-size="11" fill="#a1a1aa">Canceled (30d)</text>
  <text x="876" y="152" font-family="system-ui,-apple-system,sans-serif" font-size="30" font-weight="700" fill="#fafafa">4</text>
  <text x="876" y="174" font-family="system-ui,-apple-system,sans-serif" font-size="10" fill="#f87171">Churn rate: 4.6%</text>

  <!-- Plan distribution card -->
  <rect x="248" y="208" width="450" height="280" rx="10" fill="#18181b" stroke="#27272a" stroke-width="1"/>
  <text x="268" y="232" font-family="system-ui,-apple-system,sans-serif" font-size="14" font-weight="600" fill="#fafafa">Plan Distribution</text>
  <text x="268" y="248" font-family="system-ui,-apple-system,sans-serif" font-size="11" fill="#71717a">Active subscribers by plan tier</text>
  <line x1="268" y1="260" x2="678" y2="260" stroke="#27272a" stroke-width="1"/>

  <!-- Bar chart rows -->
  <!-- Free -->
  <text x="268" y="290" font-family="system-ui,-apple-system,sans-serif" font-size="12" fill="#a1a1aa">Free</text>
  <rect x="320" y="278" width="260" height="18" rx="4" fill="#27272a"/>
  <rect x="320" y="278" width="155" height="18" rx="4" fill="#3f3f46"/>
  <text x="590" y="291" font-family="system-ui,-apple-system,sans-serif" font-size="11" fill="#71717a">55</text>

  <!-- Pro -->
  <text x="268" y="322" font-family="system-ui,-apple-system,sans-serif" font-size="12" fill="#a1a1aa">Pro</text>
  <rect x="320" y="310" width="260" height="18" rx="4" fill="#27272a"/>
  <rect x="320" y="310" width="190" height="18" rx="4" fill="#818cf8" fill-opacity="0.6"/>
  <text x="590" y="323" font-family="system-ui,-apple-system,sans-serif" font-size="11" fill="#818cf8">63</text>

  <!-- Team -->
  <text x="268" y="354" font-family="system-ui,-apple-system,sans-serif" font-size="12" fill="#a1a1aa">Team</text>
  <rect x="320" y="342" width="260" height="18" rx="4" fill="#27272a"/>
  <rect x="320" y="342" width="72" height="18" rx="4" fill="#4ade80" fill-opacity="0.6"/>
  <text x="590" y="355" font-family="system-ui,-apple-system,sans-serif" font-size="11" fill="#4ade80">18</text>

  <!-- Enterprise -->
  <text x="268" y="386" font-family="system-ui,-apple-system,sans-serif" font-size="12" fill="#a1a1aa">Enterprise</text>
  <rect x="320" y="374" width="260" height="18" rx="4" fill="#27272a"/>
  <rect x="320" y="374" width="20" height="18" rx="4" fill="#f87171" fill-opacity="0.6"/>
  <text x="590" y="387" font-family="system-ui,-apple-system,sans-serif" font-size="11" fill="#f87171">6</text>

  <!-- Total -->
  <line x1="268" y1="406" x2="678" y2="406" stroke="#27272a" stroke-width="1"/>
  <text x="268" y="426" font-family="system-ui,-apple-system,sans-serif" font-size="12" font-weight="600" fill="#fafafa">Total paying</text>
  <text x="590" y="426" font-family="system-ui,-apple-system,sans-serif" font-size="12" font-weight="600" fill="#fafafa">87</text>
  <text x="268" y="444" font-family="system-ui,-apple-system,sans-serif" font-size="11" fill="#71717a">Avg revenue per user</text>
  <text x="590" y="444" font-family="system-ui,-apple-system,sans-serif" font-size="11" fill="#4ade80">$49.31</text>

  <!-- Subscriptions table -->
  <rect x="714" y="208" width="462" height="380" rx="10" fill="#18181b" stroke="#27272a" stroke-width="1"/>
  <text x="734" y="232" font-family="system-ui,-apple-system,sans-serif" font-size="14" font-weight="600" fill="#fafafa">Recent Subscriptions</text>
  <text x="734" y="248" font-family="system-ui,-apple-system,sans-serif" font-size="11" fill="#71717a">Latest subscription activity</text>
  <line x1="734" y1="260" x2="1156" y2="260" stroke="#27272a" stroke-width="1"/>

  <!-- Table header -->
  <text x="734" y="278" font-family="system-ui,-apple-system,sans-serif" font-size="10" font-weight="600" fill="#71717a">CUSTOMER</text>
  <text x="890" y="278" font-family="system-ui,-apple-system,sans-serif" font-size="10" font-weight="600" fill="#71717a">PLAN</text>
  <text x="970" y="278" font-family="system-ui,-apple-system,sans-serif" font-size="10" font-weight="600" fill="#71717a">STATUS</text>
  <text x="1070" y="278" font-family="system-ui,-apple-system,sans-serif" font-size="10" font-weight="600" fill="#71717a">MRR</text>
  <line x1="734" y1="284" x2="1156" y2="284" stroke="#27272a" stroke-width="1"/>

  <!-- Sub row 1 -->
  <text x="734" y="304" font-family="system-ui,-apple-system,sans-serif" font-size="12" fill="#fafafa">john@acme.com</text>
  <text x="734" y="317" font-family="system-ui,-apple-system,sans-serif" font-size="10" fill="#71717a">Since Feb 2, 2026</text>
  <rect x="890" y="296" width="48" height="18" rx="9" fill="#4ade80" fill-opacity="0.15"/>
  <text x="896" y="309" font-family="system-ui,-apple-system,sans-serif" font-size="10" fill="#4ade80">Team</text>
  <rect x="970" y="296" width="52" height="18" rx="9" fill="#4ade80" fill-opacity="0.15"/>
  <text x="977" y="309" font-family="system-ui,-apple-system,sans-serif" font-size="10" fill="#4ade80">Active</text>
  <text x="1070" y="309" font-family="system-ui,-apple-system,sans-serif" font-size="12" font-weight="600" fill="#fafafa">$199</text>
  <line x1="734" y1="328" x2="1156" y2="328" stroke="#27272a" stroke-width="1"/>

  <!-- Sub row 2 -->
  <text x="734" y="348" font-family="system-ui,-apple-system,sans-serif" font-size="12" fill="#fafafa">sarah@example.com</text>
  <text x="734" y="361" font-family="system-ui,-apple-system,sans-serif" font-size="10" fill="#71717a">Since Jan 5, 2026</text>
  <rect x="890" y="340" width="42" height="18" rx="9" fill="#818cf8" fill-opacity="0.2"/>
  <text x="899" y="353" font-family="system-ui,-apple-system,sans-serif" font-size="10" fill="#818cf8">Pro</text>
  <rect x="970" y="340" width="52" height="18" rx="9" fill="#4ade80" fill-opacity="0.15"/>
  <text x="977" y="353" font-family="system-ui,-apple-system,sans-serif" font-size="10" fill="#4ade80">Active</text>
  <text x="1070" y="353" font-family="system-ui,-apple-system,sans-serif" font-size="12" font-weight="600" fill="#fafafa">$49</text>
  <line x1="734" y1="372" x2="1156" y2="372" stroke="#27272a" stroke-width="1"/>

  <!-- Sub row 3 -->
  <text x="734" y="392" font-family="system-ui,-apple-system,sans-serif" font-size="12" fill="#fafafa">corp@bigco.com</text>
  <text x="734" y="405" font-family="system-ui,-apple-system,sans-serif" font-size="10" fill="#71717a">Since Mar 10, 2026</text>
  <rect x="890" y="384" width="70" height="18" rx="9" fill="#f87171" fill-opacity="0.12"/>
  <text x="894" y="397" font-family="system-ui,-apple-system,sans-serif" font-size="10" fill="#f87171">Enterprise</text>
  <rect x="970" y="384" width="52" height="18" rx="9" fill="#4ade80" fill-opacity="0.15"/>
  <text x="977" y="397" font-family="system-ui,-apple-system,sans-serif" font-size="10" fill="#4ade80">Active</text>
  <text x="1070" y="397" font-family="system-ui,-apple-system,sans-serif" font-size="12" font-weight="600" fill="#fafafa">$599</text>
  <line x1="734" y1="416" x2="1156" y2="416" stroke="#27272a" stroke-width="1"/>

  <!-- Sub row 4 (incomplete payment) -->
  <text x="734" y="436" font-family="system-ui,-apple-system,sans-serif" font-size="12" fill="#fafafa">dev@agency.com</text>
  <text x="734" y="449" font-family="system-ui,-apple-system,sans-serif" font-size="10" fill="#71717a">Since Mar 15, 2026</text>
  <rect x="890" y="428" width="42" height="18" rx="9" fill="#818cf8" fill-opacity="0.2"/>
  <text x="899" y="441" font-family="system-ui,-apple-system,sans-serif" font-size="10" fill="#818cf8">Pro</text>
  <rect x="970" y="428" width="76" height="18" rx="9" fill="#facc15" fill-opacity="0.15"/>
  <text x="975" y="441" font-family="system-ui,-apple-system,sans-serif" font-size="10" fill="#facc15">Incomplete</text>
  <text x="1070" y="441" font-family="system-ui,-apple-system,sans-serif" font-size="12" fill="#52525b">—</text>
  <line x1="734" y1="460" x2="1156" y2="460" stroke="#27272a" stroke-width="1"/>

  <!-- Sub row 5 (canceled) -->
  <text x="734" y="480" font-family="system-ui,-apple-system,sans-serif" font-size="12" fill="#71717a">former@user.com</text>
  <text x="734" y="493" font-family="system-ui,-apple-system,sans-serif" font-size="10" fill="#52525b">Canceled Mar 12, 2026</text>
  <rect x="890" y="472" width="42" height="18" rx="9" fill="#818cf8" fill-opacity="0.1"/>
  <text x="899" y="485" font-family="system-ui,-apple-system,sans-serif" font-size="10" fill="#52525b">Pro</text>
  <rect x="970" y="472" width="58" height="18" rx="9" fill="#f87171" fill-opacity="0.12"/>
  <text x="974" y="485" font-family="system-ui,-apple-system,sans-serif" font-size="10" fill="#f87171">Canceled</text>
  <text x="1070" y="485" font-family="system-ui,-apple-system,sans-serif" font-size="12" fill="#52525b">—</text>
  <line x1="734" y1="504" x2="1156" y2="504" stroke="#27272a" stroke-width="1"/>

  <text x="734" y="536" font-family="system-ui,-apple-system,sans-serif" font-size="11" fill="#818cf8">View all subscriptions →</text>

  <!-- Bottom note -->
  <rect x="248" y="504" width="450" height="80" rx="10" fill="#1c1c1e" stroke="#27272a" stroke-width="1"/>
  <text x="268" y="526" font-family="system-ui,-apple-system,sans-serif" font-size="13" font-weight="600" fill="#fafafa">Incomplete payment recovery</text>
  <text x="268" y="544" font-family="system-ui,-apple-system,sans-serif" font-size="11" fill="#71717a">1 subscription requires payment action.</text>
  <text x="268" y="560" font-family="system-ui,-apple-system,sans-serif" font-size="11" fill="#71717a">Reminder emails sent at 1h and 12h intervals.</text>
  <rect x="590" y="526" width="90" height="28" rx="8" fill="#818cf8"/>
  <text x="608" y="544" font-family="system-ui,-apple-system,sans-serif" font-size="12" font-weight="500" fill="#fff">Send now</text>

  <!-- Cached note -->
  <text x="248" y="600" font-family="system-ui,-apple-system,sans-serif" font-size="10" fill="#3f3f46">Stats cached · refreshes every 5 minutes · last updated just now</text>
</svg>
